<svg width="32" height="32" viewBox="0 0 32 32" fill="none" xmlns="http://www.w3.org/2000/svg">
<path fill-rule="evenodd" clip-rule="evenodd" d="M15.9996 2.54547C8.56833 2.54547 2.5451 8.56869 2.5451 16C2.5451 23.4298 8.56841 29.4546 15.9996 29.4546C23.4294 29.4546 29.4542 23.4298 29.4542 16C29.4542 8.56877 23.4295 2.54547 15.9996 2.54547ZM0.363281 16C0.363281 7.36371 7.36334 0.363647 15.9996 0.363647C24.6343 0.363647 31.636 7.36363 31.636 16C31.636 24.6347 24.6344 31.6364 15.9996 31.6364C7.36327 31.6364 0.363281 24.6347 0.363281 16Z" fill="#828A97"/>
<path fill-rule="evenodd" clip-rule="evenodd" d="M15.9991 14.9091C16.6016 14.9091 17.09 15.3975 17.09 16V22.5454C17.09 23.1479 16.6016 23.6363 15.9991 23.6363C15.3966 23.6363 14.9082 23.1479 14.9082 22.5454V16C14.9082 15.3975 15.3966 14.9091 15.9991 14.9091Z" fill="#828A97"/>
<path fill-rule="evenodd" clip-rule="evenodd" d="M14.5371 10.5455C14.5371 9.74216 15.1883 9.09094 15.9917 9.09094H16.0062C16.8095 9.09094 17.4607 9.74216 17.4607 10.5455C17.4607 11.3488 16.8095 12 16.0062 12H15.9917C15.1883 12 14.5371 11.3488 14.5371 10.5455Z" fill="#828A97"/>
</svg>
