<svg width="18" height="18" viewBox="0 0 18 18" fill="none" xmlns="http://www.w3.org/2000/svg">
<path d="M17.3655 16.0585L10.307 9.00001L17.3655 1.9415C17.7265 1.58054 17.7265 0.995335 17.3655 0.634371C17.0046 0.273406 16.4194 0.273406 16.0584 0.634371L8.99989 7.69288L1.94138 0.634371C1.58042 0.273406 0.995213 0.273406 0.634249 0.634371C0.273284 0.995335 0.273284 1.58054 0.634249 1.9415L7.69276 9.00001L0.634249 16.0585C0.273284 16.4195 0.273284 17.0047 0.634249 17.3657C0.995213 17.7266 1.58042 17.7266 1.94138 17.3657L8.99989 10.3071L16.0584 17.3657C16.4194 17.7266 17.0046 17.7266 17.3655 17.3657C17.7265 17.0047 17.7265 16.4195 17.3655 16.0585Z" fill="white"/>
</svg>
