<svg width="24" height="24" viewBox="0 0 24 24" fill="none" xmlns="http://www.w3.org/2000/svg">
<path d="M23 21.2812L13.7187 12L23 2.71875C23.4746 2.24412 23.4746 1.47463 23 1C22.5254 0.525367 21.7559 0.525367 21.2812 1L12 10.2812L2.71875 1C2.24412 0.525367 1.47463 0.525367 1 1C0.525368 1.47463 0.525368 2.24412 1 2.71875L10.2813 12L1 21.2812C0.525368 21.7559 0.525368 22.5254 1 23C1.47463 23.4746 2.24412 23.4746 2.71875 23L12 13.7187L21.2812 23C21.7559 23.4746 22.5254 23.4746 23 23C23.4746 22.5254 23.4746 21.7559 23 21.2812Z" fill="#B7C6D8"/>
</svg>
