<svg width="14" height="16" viewBox="0 0 14 16" fill="none" xmlns="http://www.w3.org/2000/svg">
<path d="M8.77928 16H2.65568C1.24138 16 0.0908203 14.8785 0.0908203 13.5V5.03125C0.0908203 3.65271 1.24138 2.53125 2.65568 2.53125H8.77928C10.1936 2.53125 11.3441 3.65271 11.3441 5.03125V13.5C11.3441 14.8785 10.1936 16 8.77928 16ZM2.65568 3.78125C1.94859 3.78125 1.37325 4.34204 1.37325 5.03125V13.5C1.37325 14.1892 1.94859 14.75 2.65568 14.75H8.77928C9.48637 14.75 10.0617 14.1892 10.0617 13.5V5.03125C10.0617 4.34204 9.48637 3.78125 8.77928 3.78125H2.65568ZM13.909 11.9375V2.5C13.909 1.12146 12.7584 0 11.3441 0H4.22666C3.87249 0 3.58544 0.279785 3.58544 0.625C3.58544 0.970215 3.87249 1.25 4.22666 1.25H11.3441C12.0512 1.25 12.6266 1.81079 12.6266 2.5V11.9375C12.6266 12.2827 12.9136 12.5625 13.2678 12.5625C13.622 12.5625 13.909 12.2827 13.909 11.9375Z" fill="#E2AD06"/>
</svg>
