<svg width="24" height="24" viewBox="0 0 24 24" fill="none" xmlns="http://www.w3.org/2000/svg">
<path fill-rule="evenodd" clip-rule="evenodd" d="M11.9998 2.81813C6.92884 2.81813 2.818 6.92897 2.818 11.9999C2.818 17.0709 6.92884 21.1818 11.9998 21.1818C17.0708 21.1818 21.1816 17.0709 21.1816 11.9999C21.1816 6.92897 17.0708 2.81813 11.9998 2.81813ZM1.18164 11.9999C1.18164 6.02523 6.02511 1.18176 11.9998 1.18176C17.9745 1.18176 22.818 6.02523 22.818 11.9999C22.818 17.9747 17.9745 22.8181 11.9998 22.8181C6.02511 22.8181 1.18164 17.9747 1.18164 11.9999Z" fill="#DA554A"/>
<path fill-rule="evenodd" clip-rule="evenodd" d="M12.2887 7.84514C11.7809 7.75804 11.2586 7.85347 10.8144 8.11454C10.3702 8.37561 10.0327 8.78548 9.86171 9.27154C9.71176 9.6978 9.24464 9.9218 8.81838 9.77185C8.39212 9.6219 8.16812 9.15478 8.31807 8.72852C8.61729 7.87792 9.2079 7.16066 9.98528 6.70378C10.7627 6.2469 11.6767 6.0799 12.5654 6.23233C13.4541 6.38477 14.2602 6.84682 14.8409 7.53665C15.4214 8.22629 15.7392 9.09909 15.7381 10.0005C15.7378 11.4346 14.6731 12.3979 13.8737 12.9308C13.4491 13.2139 13.0303 13.4227 12.7209 13.5602C12.5651 13.6295 12.434 13.6819 12.3401 13.7177C12.293 13.7357 12.255 13.7495 12.2277 13.7592C12.214 13.7641 12.2029 13.7679 12.1947 13.7708L12.1845 13.7743L12.181 13.7754L12.1791 13.7761C12.1789 13.7761 12.1786 13.7762 11.9295 13.0289L12.1791 13.7761C11.7504 13.919 11.2866 13.6874 11.1437 13.2588C11.001 12.8305 11.232 12.3677 11.6598 12.2243C11.66 12.2242 11.6603 12.2241 11.6606 12.224C11.6606 12.224 11.6605 12.224 11.6606 12.224L11.6623 12.2234L11.6795 12.2174C11.6961 12.2115 11.7226 12.2019 11.7575 12.1886C11.8276 12.1619 11.931 12.1206 12.0563 12.0649C12.3094 11.9524 12.6407 11.7862 12.966 11.5693C13.6666 11.1022 14.1017 10.5657 14.1017 10L14.1017 9.99881C14.1025 9.48355 13.9209 8.98465 13.589 8.59047C13.2572 8.19628 12.7966 7.93225 12.2887 7.84514ZM15.7381 10.0005C15.7381 10.0008 15.7381 10.001 15.7381 10.0012L14.92 10L15.7381 10.0005C15.7381 10.0007 15.7381 10.0004 15.7381 10.0005Z" fill="#DA554A"/>
<path fill-rule="evenodd" clip-rule="evenodd" d="M10.9082 17C10.9082 16.3975 11.3966 15.9091 11.9991 15.9091H12.0089C12.6114 15.9091 13.0998 16.3975 13.0998 17C13.0998 17.6025 12.6114 18.0909 12.0089 18.0909H11.9991C11.3966 18.0909 10.9082 17.6025 10.9082 17Z" fill="#DA554A"/>
</svg>
